<svg xmlns="http://www.w3.org/2000/svg" viewBox="0 0 24 24" fill="none" stroke="currentColor" stroke-width="1.5" stroke-linecap="round" stroke-linejoin="round">
  <!-- Brain outline - left hemisphere -->
  <path d="M12 2C9.5 2 7.5 3.2 6.5 5C5.2 5.2 4 6.5 4 8.2C3.2 9 2.5 10.2 2.5 11.5C2.5 13 3.2 14.2 4.2 15C4 16 4.5 17.2 5.5 18C6.2 19.5 7.8 20.5 9.5 20.8C10.2 21.5 11 22 12 22"/>
  <!-- Brain outline - right hemisphere -->
  <path d="M12 2C14.5 2 16.5 3.2 17.5 5C18.8 5.2 20 6.5 20 8.2C20.8 9 21.5 10.2 21.5 11.5C21.5 13 20.8 14.2 19.8 15C20 16 19.5 17.2 18.5 18C17.8 19.5 16.2 20.5 14.5 20.8C13.8 21.5 13 22 12 22"/>
  <!-- Central fissure -->
  <path d="M12 2V22" stroke-dasharray="2 2" opacity="0.4"/>
  <!-- Brain folds - left -->
  <path d="M4.5 9.5C6 9 8 9.5 9.5 8.5" opacity="0.6"/>
  <path d="M5 13C6.5 12.5 8.5 13.5 10 12" opacity="0.6"/>
  <path d="M6 16.5C7.5 16 9 17 10.5 15.5" opacity="0.6"/>
  <!-- Brain folds - right -->
  <path d="M19.5 9.5C18 9 16 9.5 14.5 8.5" opacity="0.6"/>
  <path d="M19 13C17.5 12.5 15.5 13.5 14 12" opacity="0.6"/>
  <path d="M18 16.5C16.5 16 15 17 13.5 15.5" opacity="0.6"/>
  <!-- Neural connection dots -->
  <circle cx="8" cy="7" r="0.8" fill="currentColor" opacity="0.5"/>
  <circle cx="16" cy="7" r="0.8" fill="currentColor" opacity="0.5"/>
  <circle cx="7" cy="11" r="0.8" fill="currentColor" opacity="0.5"/>
  <circle cx="17" cy="11" r="0.8" fill="currentColor" opacity="0.5"/>
  <circle cx="8" cy="15" r="0.8" fill="currentColor" opacity="0.5"/>
  <circle cx="16" cy="15" r="0.8" fill="currentColor" opacity="0.5"/>
  <!-- Circuit/AI accent lines -->
  <path d="M8 7L10 9L12 8L14 9L16 7" stroke-width="0.8" opacity="0.35"/>
  <path d="M7 11L9.5 12.5L12 11.5L14.5 12.5L17 11" stroke-width="0.8" opacity="0.35"/>
</svg>